<?xml version="1.0" encoding="utf-8"?>
<!-- Generator: Adobe Illustrator 27.7.0, SVG Export Plug-In . SVG Version: 6.00 Build 0)  -->
<svg version="1.1" id="Capa_1" xmlns="http://www.w3.org/2000/svg" xmlns:xlink="http://www.w3.org/1999/xlink" x="0px" y="0px"
	 viewBox="0 0 2000 2000" style="enable-background:new 0 0 2000 2000;" xml:space="preserve">
<style type="text/css">
	.st0{fill:#C1D7FD;}
	.st1{fill:#A1C3FC;}
	.st2{fill:url(#SVGID_1_);}
	.st3{fill:#FFFFFF;}
	.st4{fill:#428DFC;}
	.st5{fill:#D62929;}
	.st6{fill:url(#SVGID_00000157302367053489109770000014594948296965717122_);}
	.st7{fill:#E94A47;}
	.st8{fill:url(#SVGID_00000170275626785651318750000015574574120626397075_);}
	.st9{fill:url(#SVGID_00000020391932159292913160000005980006042521607826_);}
	.st10{fill:url(#SVGID_00000075137629544952828670000003015513589026860947_);}
	.st11{fill:url(#SVGID_00000165202773668368971100000016760970010642626198_);}
	.st12{fill:url(#SVGID_00000040569148416994178850000000116945392185835162_);}
	.st13{fill:#F2A19C;}
	.st14{fill:#F1F1F1;}
	.st15{fill:url(#SVGID_00000090974964032956004400000005051514970521457324_);}
	.st16{fill:url(#SVGID_00000178205873572088402620000017964450057980219067_);}
	.st17{fill:url(#SVGID_00000032645957260270104640000003284761458657601959_);}
	.st18{fill:url(#SVGID_00000011006487064544540950000006253660746425869987_);}
</style>
<g>
	<g transform="translate(405.0 352.5) rotate(0.0 585.0 1170.0)  scale(5.85 5.85)">
		<path class="st0" d="M149.2,246.4h-99c-10.1,0-18.4-8.1-18.4-18.2V-15.6c0-10,8.2-18.2,18.4-18.2h99c10.1,0,18.4,8.1,18.4,18.2
			v243.8C167.5,238.2,159.3,246.4,149.2,246.4z"/>
		<ellipse class="st1" cx="80.1" cy="-16.2" rx="3.2" ry="3.2"/>
		<path class="st1" d="M149.2-33.8h-19c-1,0.6-1.9,1.2-2.9,1.8C102.4-15.4,80.9,7.9,72.6,36.4c-3.4,11.5-4.5,23.5-7.1,35.2
			c-5.8,26.7-18.9,51.4-33.8,74.5v82.1c0,10,8.2,18.2,18.4,18.2h99c10.1,0,18.4-8.1,18.4-18.2V-15.6
			C167.5-25.6,159.3-33.8,149.2-33.8L149.2-33.8z"/>
		
			<linearGradient id="SVGID_1_" gradientUnits="userSpaceOnUse" x1="417.9556" y1="526.517" x2="552.0562" y2="526.517" gradientTransform="matrix(0.9957 0 0 0.9957 -326.918 -294.2174)">
			<stop  offset="0" style="stop-color:#A1C3FC"/>
			<stop  offset="1" style="stop-color:#8AB8FD"/>
		</linearGradient>
		<ellipse class="st2" cx="100.6" cy="230" rx="11.4" ry="11.3"/>
		<path class="st1" d="M88.9-17.1l22.9-2.8l0.5,3.9l-22.9,2.8L88.9-17.1z"/>
		<path class="st3" d="M37.1-2h125v217h-125L37.1-2z"/>
		<ellipse class="st0" cx="99.3" cy="228.7" rx="8.7" ry="8.6"/>
		<path class="st4" d="M108.9-16.4H90.2c-0.4,0-0.7-0.3-0.7-0.7c0-0.4,0.3-0.7,0.7-0.7h18.8c0.4,0,0.7,0.3,0.7,0.7
			C109.6-16.6,109.3-16.4,108.9-16.4z"/>
		<ellipse class="st4" cx="80.2" cy="-16.5" rx="2.2" ry="2.2"/>
		<g>
			<path class="st5" d="M29.8-1.4H32v9.6h-2.3V-1.4z"/>
			<path class="st5" d="M29.8,19.8H32v17.3h-2.3V19.8z"/>
			<path class="st5" d="M167.6,19.8h2.3v17.3h-2.3V19.8z"/>
			<path class="st5" d="M29.8,42.4H32v17.3h-2.3V42.4z"/>
		</g>
		<path class="st3" d="M77.7-21.1l3.1,3.3l-3.4,3.1L74.3-18L77.7-21.1z"/>
		<path class="st1" d="M75.5-20.7l2.2,2.4l-2.4,2.2l-2.2-2.4L75.5-20.7z"/>
	</g>
	<g transform="translate(662.5 1335.0) rotate(0.0 348.75 301.25)  scale(5.21635729990876 5.203205692868369)">
		
			<linearGradient id="SVGID_00000021105736570560664960000003522527363945223553_" gradientUnits="userSpaceOnUse" x1="-41.0359" y1="64.6625" x2="-11.1358" y2="64.6625" gradientTransform="matrix(5.2164 0 0 -5.2032 258.3524 261.0946)">
			<stop  offset="0" style="stop-color:#23286B"/>
			<stop  offset="1" style="stop-color:#151A4F"/>
		</linearGradient>
		<path style="fill:url(#SVGID_00000021105736570560664960000003522527363945223553_);" d="M66.7-89.7L74.2-61l-29.9-3.5L66.7-89.7z
			 M71.9-63l-6.1-23.2L47.7-65.8L71.9-63z"/>
		<path class="st1" d="M59.1-44c-10.5,0.3-19.2-7.9-19.5-18.4s7.9-19.2,18.4-19.5c10.5-0.3,19.2,7.9,19.5,18.4
			C77.7-53,69.5-44.3,59.1-44L59.1-44z"/>
		<path class="st4" d="M39.9-86l22.2,18.6L43.6-45.2L21.3-63.7L39.9-86z M59.8-67.2L40.1-83.7L23.6-63.9l19.7,16.5L59.8-67.2z"/>
		<path class="st7" d="M91.5-65.4L77.5-46c-2.4,3.3-6.9,4-10.2,1.6c-3.3-2.4-4-6.9-1.6-10.2l0,0l14-19.3c2.4-3.2,6.9-3.9,10.2-1.6
			C93-73.1,93.8-68.6,91.5-65.4L91.5-65.4z M67.1-53.5c-1.8,2.5-1.2,5.9,1.2,7.7c2.5,1.8,5.9,1.2,7.7-1.2l0,0l14-19.3
			c1.8-2.5,1.2-5.9-1.2-7.7c-2.5-1.8-5.9-1.2-7.7,1.2L67.1-53.5z"/>
		
			<linearGradient id="SVGID_00000107586435598552248700000016298947396396492473_" gradientUnits="userSpaceOnUse" x1="-45.9619" y1="61.744" x2="33.0359" y2="61.744" gradientTransform="matrix(5.2164 0 0 -5.2032 258.3524 261.0946)">
			<stop  offset="0" style="stop-color:#23286B"/>
			<stop  offset="1" style="stop-color:#151A4F"/>
		</linearGradient>
		<path style="fill:url(#SVGID_00000107586435598552248700000016298947396396492473_);" d="M87.4-39.9l-65-5.6l-3.9-24.7l79-10.3
			L87.4-39.9z M24-47.1l62.1,5.3l9.1-36.6l-74.6,9.8L24-47.1z"/>
		
			<linearGradient id="SVGID_00000162323636457094054810000014998780154069021350_" gradientUnits="userSpaceOnUse" x1="-31.2145" y1="66.8101" x2="-14.498" y2="66.8101" gradientTransform="matrix(5.2164 0 0 -5.2032 258.3524 261.0946)">
			<stop  offset="0" style="stop-color:#23286B"/>
			<stop  offset="1" style="stop-color:#151A4F"/>
		</linearGradient>
		<path style="fill:url(#SVGID_00000162323636457094054810000014998780154069021350_);" d="M96.4-78.5c-0.5,0-0.9-0.4-0.9-0.9
			c0-0.2,0-0.3,0.1-0.5c0.3-0.5,7.9-12.4,15.4-14.6c0.5-0.1,1,0.1,1.1,0.6c0.1,0.5-0.1,1-0.6,1.1l0,0c-6.9,2-14.4,13.7-14.4,13.8
			C97-78.7,96.7-78.5,96.4-78.5z"/>
		
			<linearGradient id="SVGID_00000104694251751607360450000003082043612614105003_" gradientUnits="userSpaceOnUse" x1="-43.0095" y1="56.4976" x2="16.9502" y2="56.4976" gradientTransform="matrix(5.2164 0 0 -5.2032 258.3524 261.0946)">
			<stop  offset="0" style="stop-color:#23286B"/>
			<stop  offset="1" style="stop-color:#151A4F"/>
		</linearGradient>
		<path style="fill:url(#SVGID_00000104694251751607360450000003082043612614105003_);" d="M34-23.7v-1.8c0.5,0,46.5,0,52.4-0.1
			c2.7,0,4.5-0.5,5.3-1.5c0.4-0.6,0.6-1.3,0.4-2.1c-0.5-2.8-5.3-9.6-7.1-11.9l1.4-1.1c0.3,0.4,6.7,8.9,7.4,12.7
			c0.3,1.2,0,2.5-0.8,3.5c-1.2,1.4-3.4,2.1-6.6,2.1C80.5-23.7,34.5-23.7,34-23.7L34-23.7z"/>
		
			<linearGradient id="SVGID_00000106837362424862716140000007472020160599997855_" gradientUnits="userSpaceOnUse" x1="-44.1324" y1="53.9161" x2="-32.1245" y2="53.9161" gradientTransform="matrix(5.2164 0 0 -5.2032 258.3524 261.0946)">
			<stop  offset="0" style="stop-color:#23286B"/>
			<stop  offset="1" style="stop-color:#151A4F"/>
		</linearGradient>
		<path style="fill:url(#SVGID_00000106837362424862716140000007472020160599997855_);" d="M34.1-13.4c-3.3,0-6-2.7-6-6
			c0-3.3,2.7-6,6-6s6,2.7,6,6l0,0C40.1-16.1,37.5-13.4,34.1-13.4z M34.1-23.7c-2.3,0-4.2,1.9-4.2,4.2c0,2.3,1.9,4.2,4.2,4.2
			s4.2-1.9,4.2-4.2l0,0C38.4-21.8,36.5-23.7,34.1-23.7L34.1-23.7z"/>
		
			<linearGradient id="SVGID_00000142887621225550971790000007322489749131734965_" gradientUnits="userSpaceOnUse" x1="-34.3056" y1="53.9161" x2="-22.2976" y2="53.9161" gradientTransform="matrix(5.2164 0 0 -5.2032 258.3524 261.0946)">
			<stop  offset="0" style="stop-color:#23286B"/>
			<stop  offset="1" style="stop-color:#151A4F"/>
		</linearGradient>
		<path style="fill:url(#SVGID_00000142887621225550971790000007322489749131734965_);" d="M85.4-13.4c-3.3,0-6-2.7-6-6
			c0-3.3,2.7-6,6-6c3.3,0,6,2.7,6,6c0,0,0,0,0,0C91.4-16.1,88.7-13.4,85.4-13.4z M85.4-23.7c-2.3,0-4.2,1.9-4.2,4.2s1.9,4.2,4.2,4.2
			c2.3,0,4.2-1.9,4.2-4.2c0,0,0,0,0,0C89.6-21.8,87.7-23.7,85.4-23.7L85.4-23.7z"/>
	</g>
	<g transform="translate(287.5 572.5) rotate(0.0 698.75 287.5)  scale(5.148960628412683 5.156858172947571)">
		<path class="st13" d="M40.7,8l18.9,6.6L78.4,8l21,6.6L116.6,8l20.1,9.5L154.3,8l21.8,9.5L192.5,8l20.1,9.5L230.7,8l-2.6-8.9
			L42.7,1.2L40.7,8z"/>
		<path class="st13" d="M59.5,27C70,27,78.5,18.4,78.4,7.9H40.7C40.6,18.4,49.1,27,59.5,27z"/>
		<path class="st7" d="M91-51.1H58.9L40.7,8h38.2L91-51.1z"/>
		<path class="st14" d="M97.5,27c10.5,0,19.1-8.6,19.1-19.1c0,0,0,0,0,0H78.4C78.4,18.5,87,27,97.5,27z"/>
		
			<linearGradient id="SVGID_00000036941211093729362160000011920119949615963291_" gradientUnits="userSpaceOnUse" x1="37.6386" y1="202.8385" x2="81.9075" y2="202.8385" gradientTransform="matrix(5.149 0 0 -5.1569 -115.393 1024.4583)">
			<stop  offset="0" style="stop-color:#EEEEEE"/>
			<stop  offset="1" style="stop-color:#D6D7D8"/>
		</linearGradient>
		<path style="fill:url(#SVGID_00000036941211093729362160000011920119949615963291_);" d="M122.7-51.1H90.6L78.4,8h38.2L122.7-51.1
			z"/>
		<path class="st13" d="M135.5,27c10.5-0.1,18.9-8.6,18.9-19.1h-37.7C116.5,18.4,125,27,135.5,27z"/>
		<path class="st7" d="M154.8-51.1h-32.1l-6.1,59h38.2L154.8-51.1z"/>
		<path class="st14" d="M173.5,27c10.5,0,19.1-8.6,19.1-19.1c0,0,0,0,0,0h-38.2C154.3,18.5,162.9,27,173.5,27
			C173.4,27,173.4,27,173.5,27z"/>
		
			<linearGradient id="SVGID_00000018232308408103329300000011143492538960330158_" gradientUnits="userSpaceOnUse" x1="52.3871" y1="202.8385" x2="90.5883" y2="202.8385" gradientTransform="matrix(5.149 0 0 -5.1569 -115.393 1024.4583)">
			<stop  offset="0" style="stop-color:#EEEEEE"/>
			<stop  offset="1" style="stop-color:#D6D7D8"/>
		</linearGradient>
		<path style="fill:url(#SVGID_00000018232308408103329300000011143492538960330158_);" d="M186.5-51.1h-32.1l0,59h38.2L186.5-51.1z
			"/>
		<path class="st13" d="M211.6,27c10.5,0,19.1-8.6,19.1-19.1c0,0,0,0,0,0h-38.2C192.5,18.5,201.1,27,211.6,27
			C211.6,27,211.6,27,211.6,27z"/>
		<path class="st7" d="M213.1-51.1h-26.6l6.1,59h38.2L213.1-51.1z"/>
	</g>
	<g transform="translate(697.5 2072.5) rotate(0.0 292.5 100.0)  scale(5.1499652267305205 5.141123849673538)">
		
			<linearGradient id="SVGID_00000031909413915885673100000002724684486052914326_" gradientUnits="userSpaceOnUse" x1="-53.9395" y1="-68.1186" x2="25.6137" y2="-68.1186" gradientTransform="matrix(5.15 0 0 -5.1411 294.588 -475.245)">
			<stop  offset="0" style="stop-color:#E94A47"/>
			<stop  offset="1" style="stop-color:#DD2F2F"/>
		</linearGradient>
		<path style="fill:url(#SVGID_00000031909413915885673100000002724684486052914326_);" d="M29.6-138.7h54c7.1,0,12.8,5.7,12.8,12.8
			v1.7c0,7.1-5.7,12.8-12.8,12.8h-54c-7.1,0-12.8-5.7-12.8-12.8v-1.7C16.8-132.9,22.5-138.7,29.6-138.7z"/>
		
			<linearGradient id="SVGID_00000072254545605197895870000015714251817582459310_" gradientUnits="userSpaceOnUse" x1="-44.2938" y1="-68.1186" x2="-64.0902" y2="-68.1186" gradientTransform="matrix(5.15 0 0 -5.1411 294.588 -475.245)">
			<stop  offset="0" style="stop-color:#D6D7D8"/>
			<stop  offset="1" style="stop-color:#EEEEEE"/>
		</linearGradient>
		<path style="fill:url(#SVGID_00000072254545605197895870000015714251817582459310_);" d="M46.7-128.1l6.1,9.9h5l8.7-13.7h-5.9
			l-5.8,9.4l-3.6-5.7H46.7z"/>
	</g>
</g>
</svg>
